# xmcd
#
# Track frame offsets:
#	150
#	29648
#	56214
#	85001
#	128984
#	155069
#	184377
#	216465
#
# Disc length: 3366 seconds
#
# Revision: 1
# Processed by: cddbd v1.5.1PL0 Copyright (c) Steve Scherf et al.
# Submitted via: audiograbber 1.83.01
#
DISCID=7b0d2408
DTITLE=Kijitonyama Upendo group - Maisha Yako
DYEAR=2000
DGENRE=African
TTITLE0=Pa Salama
TTITLE1=Sifa Zivume
TTITLE2=Maisha Yako
TTITLE3=Giza Nene
TTITLE4=Kwenda na Yesu
TTITLE5=Kila Jambo
TTITLE6=Katika Zamu
TTITLE7=Mrudie Bwana
EXTD=
EXTT0=
EXTT1=
EXTT2=
EXTT3=
EXTT4=
EXTT5=
EXTT6=
EXTT7=
PLAYORDER=
